<?xml version="1.0" standalone="no"?>
<!DOCTYPE svg PUBLIC "-//W3C//DTD SVG 20010904//EN"
 "http://www.w3.org/TR/2001/REC-SVG-20010904/DTD/svg10.dtd">
<svg version="1.0" xmlns="http://www.w3.org/2000/svg"
 width="296.000000pt" height="171.000000pt" viewBox="0 0 296.000000 171.000000"
 preserveAspectRatio="xMidYMid meet">
<metadata>
Created by potrace 1.16, written by Peter Selinger 2001-2019
</metadata>
<g transform="translate(0.000000,171.000000) scale(0.100000,-0.100000)"
fill="#000000" stroke="none">
<path d="M1761 1364 c-186 -40 -315 -172 -352 -362 -18 -92 -7 -280 21 -360
46 -130 145 -235 253 -267 28 -8 89 -15 138 -15 109 0 180 24 238 80 l41 40 0
-50 0 -50 110 0 110 0 0 275 0 275 -215 0 -215 0 0 -85 0 -84 98 -3 97 -3 -3
-33 c-11 -116 -108 -193 -222 -178 -69 10 -113 45 -151 121 -29 58 -33 78 -37
170 -6 125 19 222 71 281 82 94 216 85 280 -18 l30 -48 130 0 130 0 -6 45
c-28 201 -282 327 -546 269z"/>
<path d="M640 865 l0 -485 355 0 355 0 0 105 0 105 -225 0 -225 0 0 380 0 380
-130 0 -130 0 0 -485z"/>
</g>
</svg>
